G75*
%MOIN*%
%OFA0B0*%
%FSLAX25Y25*%
%IPPOS*%
%LPD*%
%AMOC8*
5,1,8,0,0,1.08239X$1,22.5*
%
%ADD10C,0.00600*%
%ADD11C,0.00787*%
%ADD12C,0.01000*%
%ADD13C,0.00800*%
%ADD14C,0.00500*%
D10*
X0019207Y0001600D02*
X0019207Y0100025D01*
X0117633Y0100025D01*
X0117633Y0001600D01*
X0019207Y0001600D01*
D11*
X0021509Y0015380D02*
X0021512Y0015662D01*
X0021523Y0015943D01*
X0021540Y0016224D01*
X0021564Y0016505D01*
X0021595Y0016785D01*
X0021633Y0017064D01*
X0021678Y0017342D01*
X0021730Y0017619D01*
X0021788Y0017895D01*
X0021853Y0018169D01*
X0021925Y0018441D01*
X0022003Y0018712D01*
X0022088Y0018980D01*
X0022180Y0019247D01*
X0022278Y0019511D01*
X0022383Y0019772D01*
X0022494Y0020031D01*
X0022611Y0020287D01*
X0022735Y0020541D01*
X0022864Y0020791D01*
X0023000Y0021037D01*
X0023142Y0021281D01*
X0023290Y0021521D01*
X0023443Y0021757D01*
X0023603Y0021989D01*
X0023768Y0022217D01*
X0023938Y0022442D01*
X0024114Y0022662D01*
X0024296Y0022877D01*
X0024482Y0023088D01*
X0024674Y0023295D01*
X0024871Y0023496D01*
X0025072Y0023693D01*
X0025279Y0023885D01*
X0025490Y0024071D01*
X0025705Y0024253D01*
X0025925Y0024429D01*
X0026150Y0024599D01*
X0026378Y0024764D01*
X0026610Y0024924D01*
X0026846Y0025077D01*
X0027086Y0025225D01*
X0027330Y0025367D01*
X0027576Y0025503D01*
X0027826Y0025632D01*
X0028080Y0025756D01*
X0028336Y0025873D01*
X0028595Y0025984D01*
X0028856Y0026089D01*
X0029120Y0026187D01*
X0029387Y0026279D01*
X0029655Y0026364D01*
X0029926Y0026442D01*
X0030198Y0026514D01*
X0030472Y0026579D01*
X0030748Y0026637D01*
X0031025Y0026689D01*
X0031303Y0026734D01*
X0031582Y0026772D01*
X0031862Y0026803D01*
X0032143Y0026827D01*
X0032424Y0026844D01*
X0032705Y0026855D01*
X0032987Y0026858D01*
X0033269Y0026855D01*
X0033550Y0026844D01*
X0033831Y0026827D01*
X0034112Y0026803D01*
X0034392Y0026772D01*
X0034671Y0026734D01*
X0034949Y0026689D01*
X0035226Y0026637D01*
X0035502Y0026579D01*
X0035776Y0026514D01*
X0036048Y0026442D01*
X0036319Y0026364D01*
X0036587Y0026279D01*
X0036854Y0026187D01*
X0037118Y0026089D01*
X0037379Y0025984D01*
X0037638Y0025873D01*
X0037894Y0025756D01*
X0038148Y0025632D01*
X0038398Y0025503D01*
X0038644Y0025367D01*
X0038888Y0025225D01*
X0039128Y0025077D01*
X0039364Y0024924D01*
X0039596Y0024764D01*
X0039824Y0024599D01*
X0040049Y0024429D01*
X0040269Y0024253D01*
X0040484Y0024071D01*
X0040695Y0023885D01*
X0040902Y0023693D01*
X0041103Y0023496D01*
X0041300Y0023295D01*
X0041492Y0023088D01*
X0041678Y0022877D01*
X0041860Y0022662D01*
X0042036Y0022442D01*
X0042206Y0022217D01*
X0042371Y0021989D01*
X0042531Y0021757D01*
X0042684Y0021521D01*
X0042832Y0021281D01*
X0042974Y0021037D01*
X0043110Y0020791D01*
X0043239Y0020541D01*
X0043363Y0020287D01*
X0043480Y0020031D01*
X0043591Y0019772D01*
X0043696Y0019511D01*
X0043794Y0019247D01*
X0043886Y0018980D01*
X0043971Y0018712D01*
X0044049Y0018441D01*
X0044121Y0018169D01*
X0044186Y0017895D01*
X0044244Y0017619D01*
X0044296Y0017342D01*
X0044341Y0017064D01*
X0044379Y0016785D01*
X0044410Y0016505D01*
X0044434Y0016224D01*
X0044451Y0015943D01*
X0044462Y0015662D01*
X0044465Y0015380D01*
X0044462Y0015098D01*
X0044451Y0014817D01*
X0044434Y0014536D01*
X0044410Y0014255D01*
X0044379Y0013975D01*
X0044341Y0013696D01*
X0044296Y0013418D01*
X0044244Y0013141D01*
X0044186Y0012865D01*
X0044121Y0012591D01*
X0044049Y0012319D01*
X0043971Y0012048D01*
X0043886Y0011780D01*
X0043794Y0011513D01*
X0043696Y0011249D01*
X0043591Y0010988D01*
X0043480Y0010729D01*
X0043363Y0010473D01*
X0043239Y0010219D01*
X0043110Y0009969D01*
X0042974Y0009723D01*
X0042832Y0009479D01*
X0042684Y0009239D01*
X0042531Y0009003D01*
X0042371Y0008771D01*
X0042206Y0008543D01*
X0042036Y0008318D01*
X0041860Y0008098D01*
X0041678Y0007883D01*
X0041492Y0007672D01*
X0041300Y0007465D01*
X0041103Y0007264D01*
X0040902Y0007067D01*
X0040695Y0006875D01*
X0040484Y0006689D01*
X0040269Y0006507D01*
X0040049Y0006331D01*
X0039824Y0006161D01*
X0039596Y0005996D01*
X0039364Y0005836D01*
X0039128Y0005683D01*
X0038888Y0005535D01*
X0038644Y0005393D01*
X0038398Y0005257D01*
X0038148Y0005128D01*
X0037894Y0005004D01*
X0037638Y0004887D01*
X0037379Y0004776D01*
X0037118Y0004671D01*
X0036854Y0004573D01*
X0036587Y0004481D01*
X0036319Y0004396D01*
X0036048Y0004318D01*
X0035776Y0004246D01*
X0035502Y0004181D01*
X0035226Y0004123D01*
X0034949Y0004071D01*
X0034671Y0004026D01*
X0034392Y0003988D01*
X0034112Y0003957D01*
X0033831Y0003933D01*
X0033550Y0003916D01*
X0033269Y0003905D01*
X0032987Y0003902D01*
X0032705Y0003905D01*
X0032424Y0003916D01*
X0032143Y0003933D01*
X0031862Y0003957D01*
X0031582Y0003988D01*
X0031303Y0004026D01*
X0031025Y0004071D01*
X0030748Y0004123D01*
X0030472Y0004181D01*
X0030198Y0004246D01*
X0029926Y0004318D01*
X0029655Y0004396D01*
X0029387Y0004481D01*
X0029120Y0004573D01*
X0028856Y0004671D01*
X0028595Y0004776D01*
X0028336Y0004887D01*
X0028080Y0005004D01*
X0027826Y0005128D01*
X0027576Y0005257D01*
X0027330Y0005393D01*
X0027086Y0005535D01*
X0026846Y0005683D01*
X0026610Y0005836D01*
X0026378Y0005996D01*
X0026150Y0006161D01*
X0025925Y0006331D01*
X0025705Y0006507D01*
X0025490Y0006689D01*
X0025279Y0006875D01*
X0025072Y0007067D01*
X0024871Y0007264D01*
X0024674Y0007465D01*
X0024482Y0007672D01*
X0024296Y0007883D01*
X0024114Y0008098D01*
X0023938Y0008318D01*
X0023768Y0008543D01*
X0023603Y0008771D01*
X0023443Y0009003D01*
X0023290Y0009239D01*
X0023142Y0009479D01*
X0023000Y0009723D01*
X0022864Y0009969D01*
X0022735Y0010219D01*
X0022611Y0010473D01*
X0022494Y0010729D01*
X0022383Y0010988D01*
X0022278Y0011249D01*
X0022180Y0011513D01*
X0022088Y0011780D01*
X0022003Y0012048D01*
X0021925Y0012319D01*
X0021853Y0012591D01*
X0021788Y0012865D01*
X0021730Y0013141D01*
X0021678Y0013418D01*
X0021633Y0013696D01*
X0021595Y0013975D01*
X0021564Y0014255D01*
X0021540Y0014536D01*
X0021523Y0014817D01*
X0021512Y0015098D01*
X0021509Y0015380D01*
X0021509Y0086246D02*
X0021512Y0086528D01*
X0021523Y0086809D01*
X0021540Y0087090D01*
X0021564Y0087371D01*
X0021595Y0087651D01*
X0021633Y0087930D01*
X0021678Y0088208D01*
X0021730Y0088485D01*
X0021788Y0088761D01*
X0021853Y0089035D01*
X0021925Y0089307D01*
X0022003Y0089578D01*
X0022088Y0089846D01*
X0022180Y0090113D01*
X0022278Y0090377D01*
X0022383Y0090638D01*
X0022494Y0090897D01*
X0022611Y0091153D01*
X0022735Y0091407D01*
X0022864Y0091657D01*
X0023000Y0091903D01*
X0023142Y0092147D01*
X0023290Y0092387D01*
X0023443Y0092623D01*
X0023603Y0092855D01*
X0023768Y0093083D01*
X0023938Y0093308D01*
X0024114Y0093528D01*
X0024296Y0093743D01*
X0024482Y0093954D01*
X0024674Y0094161D01*
X0024871Y0094362D01*
X0025072Y0094559D01*
X0025279Y0094751D01*
X0025490Y0094937D01*
X0025705Y0095119D01*
X0025925Y0095295D01*
X0026150Y0095465D01*
X0026378Y0095630D01*
X0026610Y0095790D01*
X0026846Y0095943D01*
X0027086Y0096091D01*
X0027330Y0096233D01*
X0027576Y0096369D01*
X0027826Y0096498D01*
X0028080Y0096622D01*
X0028336Y0096739D01*
X0028595Y0096850D01*
X0028856Y0096955D01*
X0029120Y0097053D01*
X0029387Y0097145D01*
X0029655Y0097230D01*
X0029926Y0097308D01*
X0030198Y0097380D01*
X0030472Y0097445D01*
X0030748Y0097503D01*
X0031025Y0097555D01*
X0031303Y0097600D01*
X0031582Y0097638D01*
X0031862Y0097669D01*
X0032143Y0097693D01*
X0032424Y0097710D01*
X0032705Y0097721D01*
X0032987Y0097724D01*
X0033269Y0097721D01*
X0033550Y0097710D01*
X0033831Y0097693D01*
X0034112Y0097669D01*
X0034392Y0097638D01*
X0034671Y0097600D01*
X0034949Y0097555D01*
X0035226Y0097503D01*
X0035502Y0097445D01*
X0035776Y0097380D01*
X0036048Y0097308D01*
X0036319Y0097230D01*
X0036587Y0097145D01*
X0036854Y0097053D01*
X0037118Y0096955D01*
X0037379Y0096850D01*
X0037638Y0096739D01*
X0037894Y0096622D01*
X0038148Y0096498D01*
X0038398Y0096369D01*
X0038644Y0096233D01*
X0038888Y0096091D01*
X0039128Y0095943D01*
X0039364Y0095790D01*
X0039596Y0095630D01*
X0039824Y0095465D01*
X0040049Y0095295D01*
X0040269Y0095119D01*
X0040484Y0094937D01*
X0040695Y0094751D01*
X0040902Y0094559D01*
X0041103Y0094362D01*
X0041300Y0094161D01*
X0041492Y0093954D01*
X0041678Y0093743D01*
X0041860Y0093528D01*
X0042036Y0093308D01*
X0042206Y0093083D01*
X0042371Y0092855D01*
X0042531Y0092623D01*
X0042684Y0092387D01*
X0042832Y0092147D01*
X0042974Y0091903D01*
X0043110Y0091657D01*
X0043239Y0091407D01*
X0043363Y0091153D01*
X0043480Y0090897D01*
X0043591Y0090638D01*
X0043696Y0090377D01*
X0043794Y0090113D01*
X0043886Y0089846D01*
X0043971Y0089578D01*
X0044049Y0089307D01*
X0044121Y0089035D01*
X0044186Y0088761D01*
X0044244Y0088485D01*
X0044296Y0088208D01*
X0044341Y0087930D01*
X0044379Y0087651D01*
X0044410Y0087371D01*
X0044434Y0087090D01*
X0044451Y0086809D01*
X0044462Y0086528D01*
X0044465Y0086246D01*
X0044462Y0085964D01*
X0044451Y0085683D01*
X0044434Y0085402D01*
X0044410Y0085121D01*
X0044379Y0084841D01*
X0044341Y0084562D01*
X0044296Y0084284D01*
X0044244Y0084007D01*
X0044186Y0083731D01*
X0044121Y0083457D01*
X0044049Y0083185D01*
X0043971Y0082914D01*
X0043886Y0082646D01*
X0043794Y0082379D01*
X0043696Y0082115D01*
X0043591Y0081854D01*
X0043480Y0081595D01*
X0043363Y0081339D01*
X0043239Y0081085D01*
X0043110Y0080835D01*
X0042974Y0080589D01*
X0042832Y0080345D01*
X0042684Y0080105D01*
X0042531Y0079869D01*
X0042371Y0079637D01*
X0042206Y0079409D01*
X0042036Y0079184D01*
X0041860Y0078964D01*
X0041678Y0078749D01*
X0041492Y0078538D01*
X0041300Y0078331D01*
X0041103Y0078130D01*
X0040902Y0077933D01*
X0040695Y0077741D01*
X0040484Y0077555D01*
X0040269Y0077373D01*
X0040049Y0077197D01*
X0039824Y0077027D01*
X0039596Y0076862D01*
X0039364Y0076702D01*
X0039128Y0076549D01*
X0038888Y0076401D01*
X0038644Y0076259D01*
X0038398Y0076123D01*
X0038148Y0075994D01*
X0037894Y0075870D01*
X0037638Y0075753D01*
X0037379Y0075642D01*
X0037118Y0075537D01*
X0036854Y0075439D01*
X0036587Y0075347D01*
X0036319Y0075262D01*
X0036048Y0075184D01*
X0035776Y0075112D01*
X0035502Y0075047D01*
X0035226Y0074989D01*
X0034949Y0074937D01*
X0034671Y0074892D01*
X0034392Y0074854D01*
X0034112Y0074823D01*
X0033831Y0074799D01*
X0033550Y0074782D01*
X0033269Y0074771D01*
X0032987Y0074768D01*
X0032705Y0074771D01*
X0032424Y0074782D01*
X0032143Y0074799D01*
X0031862Y0074823D01*
X0031582Y0074854D01*
X0031303Y0074892D01*
X0031025Y0074937D01*
X0030748Y0074989D01*
X0030472Y0075047D01*
X0030198Y0075112D01*
X0029926Y0075184D01*
X0029655Y0075262D01*
X0029387Y0075347D01*
X0029120Y0075439D01*
X0028856Y0075537D01*
X0028595Y0075642D01*
X0028336Y0075753D01*
X0028080Y0075870D01*
X0027826Y0075994D01*
X0027576Y0076123D01*
X0027330Y0076259D01*
X0027086Y0076401D01*
X0026846Y0076549D01*
X0026610Y0076702D01*
X0026378Y0076862D01*
X0026150Y0077027D01*
X0025925Y0077197D01*
X0025705Y0077373D01*
X0025490Y0077555D01*
X0025279Y0077741D01*
X0025072Y0077933D01*
X0024871Y0078130D01*
X0024674Y0078331D01*
X0024482Y0078538D01*
X0024296Y0078749D01*
X0024114Y0078964D01*
X0023938Y0079184D01*
X0023768Y0079409D01*
X0023603Y0079637D01*
X0023443Y0079869D01*
X0023290Y0080105D01*
X0023142Y0080345D01*
X0023000Y0080589D01*
X0022864Y0080835D01*
X0022735Y0081085D01*
X0022611Y0081339D01*
X0022494Y0081595D01*
X0022383Y0081854D01*
X0022278Y0082115D01*
X0022180Y0082379D01*
X0022088Y0082646D01*
X0022003Y0082914D01*
X0021925Y0083185D01*
X0021853Y0083457D01*
X0021788Y0083731D01*
X0021730Y0084007D01*
X0021678Y0084284D01*
X0021633Y0084562D01*
X0021595Y0084841D01*
X0021564Y0085121D01*
X0021540Y0085402D01*
X0021523Y0085683D01*
X0021512Y0085964D01*
X0021509Y0086246D01*
X0092375Y0086246D02*
X0092378Y0086528D01*
X0092389Y0086809D01*
X0092406Y0087090D01*
X0092430Y0087371D01*
X0092461Y0087651D01*
X0092499Y0087930D01*
X0092544Y0088208D01*
X0092596Y0088485D01*
X0092654Y0088761D01*
X0092719Y0089035D01*
X0092791Y0089307D01*
X0092869Y0089578D01*
X0092954Y0089846D01*
X0093046Y0090113D01*
X0093144Y0090377D01*
X0093249Y0090638D01*
X0093360Y0090897D01*
X0093477Y0091153D01*
X0093601Y0091407D01*
X0093730Y0091657D01*
X0093866Y0091903D01*
X0094008Y0092147D01*
X0094156Y0092387D01*
X0094309Y0092623D01*
X0094469Y0092855D01*
X0094634Y0093083D01*
X0094804Y0093308D01*
X0094980Y0093528D01*
X0095162Y0093743D01*
X0095348Y0093954D01*
X0095540Y0094161D01*
X0095737Y0094362D01*
X0095938Y0094559D01*
X0096145Y0094751D01*
X0096356Y0094937D01*
X0096571Y0095119D01*
X0096791Y0095295D01*
X0097016Y0095465D01*
X0097244Y0095630D01*
X0097476Y0095790D01*
X0097712Y0095943D01*
X0097952Y0096091D01*
X0098196Y0096233D01*
X0098442Y0096369D01*
X0098692Y0096498D01*
X0098946Y0096622D01*
X0099202Y0096739D01*
X0099461Y0096850D01*
X0099722Y0096955D01*
X0099986Y0097053D01*
X0100253Y0097145D01*
X0100521Y0097230D01*
X0100792Y0097308D01*
X0101064Y0097380D01*
X0101338Y0097445D01*
X0101614Y0097503D01*
X0101891Y0097555D01*
X0102169Y0097600D01*
X0102448Y0097638D01*
X0102728Y0097669D01*
X0103009Y0097693D01*
X0103290Y0097710D01*
X0103571Y0097721D01*
X0103853Y0097724D01*
X0104135Y0097721D01*
X0104416Y0097710D01*
X0104697Y0097693D01*
X0104978Y0097669D01*
X0105258Y0097638D01*
X0105537Y0097600D01*
X0105815Y0097555D01*
X0106092Y0097503D01*
X0106368Y0097445D01*
X0106642Y0097380D01*
X0106914Y0097308D01*
X0107185Y0097230D01*
X0107453Y0097145D01*
X0107720Y0097053D01*
X0107984Y0096955D01*
X0108245Y0096850D01*
X0108504Y0096739D01*
X0108760Y0096622D01*
X0109014Y0096498D01*
X0109264Y0096369D01*
X0109510Y0096233D01*
X0109754Y0096091D01*
X0109994Y0095943D01*
X0110230Y0095790D01*
X0110462Y0095630D01*
X0110690Y0095465D01*
X0110915Y0095295D01*
X0111135Y0095119D01*
X0111350Y0094937D01*
X0111561Y0094751D01*
X0111768Y0094559D01*
X0111969Y0094362D01*
X0112166Y0094161D01*
X0112358Y0093954D01*
X0112544Y0093743D01*
X0112726Y0093528D01*
X0112902Y0093308D01*
X0113072Y0093083D01*
X0113237Y0092855D01*
X0113397Y0092623D01*
X0113550Y0092387D01*
X0113698Y0092147D01*
X0113840Y0091903D01*
X0113976Y0091657D01*
X0114105Y0091407D01*
X0114229Y0091153D01*
X0114346Y0090897D01*
X0114457Y0090638D01*
X0114562Y0090377D01*
X0114660Y0090113D01*
X0114752Y0089846D01*
X0114837Y0089578D01*
X0114915Y0089307D01*
X0114987Y0089035D01*
X0115052Y0088761D01*
X0115110Y0088485D01*
X0115162Y0088208D01*
X0115207Y0087930D01*
X0115245Y0087651D01*
X0115276Y0087371D01*
X0115300Y0087090D01*
X0115317Y0086809D01*
X0115328Y0086528D01*
X0115331Y0086246D01*
X0115328Y0085964D01*
X0115317Y0085683D01*
X0115300Y0085402D01*
X0115276Y0085121D01*
X0115245Y0084841D01*
X0115207Y0084562D01*
X0115162Y0084284D01*
X0115110Y0084007D01*
X0115052Y0083731D01*
X0114987Y0083457D01*
X0114915Y0083185D01*
X0114837Y0082914D01*
X0114752Y0082646D01*
X0114660Y0082379D01*
X0114562Y0082115D01*
X0114457Y0081854D01*
X0114346Y0081595D01*
X0114229Y0081339D01*
X0114105Y0081085D01*
X0113976Y0080835D01*
X0113840Y0080589D01*
X0113698Y0080345D01*
X0113550Y0080105D01*
X0113397Y0079869D01*
X0113237Y0079637D01*
X0113072Y0079409D01*
X0112902Y0079184D01*
X0112726Y0078964D01*
X0112544Y0078749D01*
X0112358Y0078538D01*
X0112166Y0078331D01*
X0111969Y0078130D01*
X0111768Y0077933D01*
X0111561Y0077741D01*
X0111350Y0077555D01*
X0111135Y0077373D01*
X0110915Y0077197D01*
X0110690Y0077027D01*
X0110462Y0076862D01*
X0110230Y0076702D01*
X0109994Y0076549D01*
X0109754Y0076401D01*
X0109510Y0076259D01*
X0109264Y0076123D01*
X0109014Y0075994D01*
X0108760Y0075870D01*
X0108504Y0075753D01*
X0108245Y0075642D01*
X0107984Y0075537D01*
X0107720Y0075439D01*
X0107453Y0075347D01*
X0107185Y0075262D01*
X0106914Y0075184D01*
X0106642Y0075112D01*
X0106368Y0075047D01*
X0106092Y0074989D01*
X0105815Y0074937D01*
X0105537Y0074892D01*
X0105258Y0074854D01*
X0104978Y0074823D01*
X0104697Y0074799D01*
X0104416Y0074782D01*
X0104135Y0074771D01*
X0103853Y0074768D01*
X0103571Y0074771D01*
X0103290Y0074782D01*
X0103009Y0074799D01*
X0102728Y0074823D01*
X0102448Y0074854D01*
X0102169Y0074892D01*
X0101891Y0074937D01*
X0101614Y0074989D01*
X0101338Y0075047D01*
X0101064Y0075112D01*
X0100792Y0075184D01*
X0100521Y0075262D01*
X0100253Y0075347D01*
X0099986Y0075439D01*
X0099722Y0075537D01*
X0099461Y0075642D01*
X0099202Y0075753D01*
X0098946Y0075870D01*
X0098692Y0075994D01*
X0098442Y0076123D01*
X0098196Y0076259D01*
X0097952Y0076401D01*
X0097712Y0076549D01*
X0097476Y0076702D01*
X0097244Y0076862D01*
X0097016Y0077027D01*
X0096791Y0077197D01*
X0096571Y0077373D01*
X0096356Y0077555D01*
X0096145Y0077741D01*
X0095938Y0077933D01*
X0095737Y0078130D01*
X0095540Y0078331D01*
X0095348Y0078538D01*
X0095162Y0078749D01*
X0094980Y0078964D01*
X0094804Y0079184D01*
X0094634Y0079409D01*
X0094469Y0079637D01*
X0094309Y0079869D01*
X0094156Y0080105D01*
X0094008Y0080345D01*
X0093866Y0080589D01*
X0093730Y0080835D01*
X0093601Y0081085D01*
X0093477Y0081339D01*
X0093360Y0081595D01*
X0093249Y0081854D01*
X0093144Y0082115D01*
X0093046Y0082379D01*
X0092954Y0082646D01*
X0092869Y0082914D01*
X0092791Y0083185D01*
X0092719Y0083457D01*
X0092654Y0083731D01*
X0092596Y0084007D01*
X0092544Y0084284D01*
X0092499Y0084562D01*
X0092461Y0084841D01*
X0092430Y0085121D01*
X0092406Y0085402D01*
X0092389Y0085683D01*
X0092378Y0085964D01*
X0092375Y0086246D01*
X0092375Y0015380D02*
X0092378Y0015662D01*
X0092389Y0015943D01*
X0092406Y0016224D01*
X0092430Y0016505D01*
X0092461Y0016785D01*
X0092499Y0017064D01*
X0092544Y0017342D01*
X0092596Y0017619D01*
X0092654Y0017895D01*
X0092719Y0018169D01*
X0092791Y0018441D01*
X0092869Y0018712D01*
X0092954Y0018980D01*
X0093046Y0019247D01*
X0093144Y0019511D01*
X0093249Y0019772D01*
X0093360Y0020031D01*
X0093477Y0020287D01*
X0093601Y0020541D01*
X0093730Y0020791D01*
X0093866Y0021037D01*
X0094008Y0021281D01*
X0094156Y0021521D01*
X0094309Y0021757D01*
X0094469Y0021989D01*
X0094634Y0022217D01*
X0094804Y0022442D01*
X0094980Y0022662D01*
X0095162Y0022877D01*
X0095348Y0023088D01*
X0095540Y0023295D01*
X0095737Y0023496D01*
X0095938Y0023693D01*
X0096145Y0023885D01*
X0096356Y0024071D01*
X0096571Y0024253D01*
X0096791Y0024429D01*
X0097016Y0024599D01*
X0097244Y0024764D01*
X0097476Y0024924D01*
X0097712Y0025077D01*
X0097952Y0025225D01*
X0098196Y0025367D01*
X0098442Y0025503D01*
X0098692Y0025632D01*
X0098946Y0025756D01*
X0099202Y0025873D01*
X0099461Y0025984D01*
X0099722Y0026089D01*
X0099986Y0026187D01*
X0100253Y0026279D01*
X0100521Y0026364D01*
X0100792Y0026442D01*
X0101064Y0026514D01*
X0101338Y0026579D01*
X0101614Y0026637D01*
X0101891Y0026689D01*
X0102169Y0026734D01*
X0102448Y0026772D01*
X0102728Y0026803D01*
X0103009Y0026827D01*
X0103290Y0026844D01*
X0103571Y0026855D01*
X0103853Y0026858D01*
X0104135Y0026855D01*
X0104416Y0026844D01*
X0104697Y0026827D01*
X0104978Y0026803D01*
X0105258Y0026772D01*
X0105537Y0026734D01*
X0105815Y0026689D01*
X0106092Y0026637D01*
X0106368Y0026579D01*
X0106642Y0026514D01*
X0106914Y0026442D01*
X0107185Y0026364D01*
X0107453Y0026279D01*
X0107720Y0026187D01*
X0107984Y0026089D01*
X0108245Y0025984D01*
X0108504Y0025873D01*
X0108760Y0025756D01*
X0109014Y0025632D01*
X0109264Y0025503D01*
X0109510Y0025367D01*
X0109754Y0025225D01*
X0109994Y0025077D01*
X0110230Y0024924D01*
X0110462Y0024764D01*
X0110690Y0024599D01*
X0110915Y0024429D01*
X0111135Y0024253D01*
X0111350Y0024071D01*
X0111561Y0023885D01*
X0111768Y0023693D01*
X0111969Y0023496D01*
X0112166Y0023295D01*
X0112358Y0023088D01*
X0112544Y0022877D01*
X0112726Y0022662D01*
X0112902Y0022442D01*
X0113072Y0022217D01*
X0113237Y0021989D01*
X0113397Y0021757D01*
X0113550Y0021521D01*
X0113698Y0021281D01*
X0113840Y0021037D01*
X0113976Y0020791D01*
X0114105Y0020541D01*
X0114229Y0020287D01*
X0114346Y0020031D01*
X0114457Y0019772D01*
X0114562Y0019511D01*
X0114660Y0019247D01*
X0114752Y0018980D01*
X0114837Y0018712D01*
X0114915Y0018441D01*
X0114987Y0018169D01*
X0115052Y0017895D01*
X0115110Y0017619D01*
X0115162Y0017342D01*
X0115207Y0017064D01*
X0115245Y0016785D01*
X0115276Y0016505D01*
X0115300Y0016224D01*
X0115317Y0015943D01*
X0115328Y0015662D01*
X0115331Y0015380D01*
X0115328Y0015098D01*
X0115317Y0014817D01*
X0115300Y0014536D01*
X0115276Y0014255D01*
X0115245Y0013975D01*
X0115207Y0013696D01*
X0115162Y0013418D01*
X0115110Y0013141D01*
X0115052Y0012865D01*
X0114987Y0012591D01*
X0114915Y0012319D01*
X0114837Y0012048D01*
X0114752Y0011780D01*
X0114660Y0011513D01*
X0114562Y0011249D01*
X0114457Y0010988D01*
X0114346Y0010729D01*
X0114229Y0010473D01*
X0114105Y0010219D01*
X0113976Y0009969D01*
X0113840Y0009723D01*
X0113698Y0009479D01*
X0113550Y0009239D01*
X0113397Y0009003D01*
X0113237Y0008771D01*
X0113072Y0008543D01*
X0112902Y0008318D01*
X0112726Y0008098D01*
X0112544Y0007883D01*
X0112358Y0007672D01*
X0112166Y0007465D01*
X0111969Y0007264D01*
X0111768Y0007067D01*
X0111561Y0006875D01*
X0111350Y0006689D01*
X0111135Y0006507D01*
X0110915Y0006331D01*
X0110690Y0006161D01*
X0110462Y0005996D01*
X0110230Y0005836D01*
X0109994Y0005683D01*
X0109754Y0005535D01*
X0109510Y0005393D01*
X0109264Y0005257D01*
X0109014Y0005128D01*
X0108760Y0005004D01*
X0108504Y0004887D01*
X0108245Y0004776D01*
X0107984Y0004671D01*
X0107720Y0004573D01*
X0107453Y0004481D01*
X0107185Y0004396D01*
X0106914Y0004318D01*
X0106642Y0004246D01*
X0106368Y0004181D01*
X0106092Y0004123D01*
X0105815Y0004071D01*
X0105537Y0004026D01*
X0105258Y0003988D01*
X0104978Y0003957D01*
X0104697Y0003933D01*
X0104416Y0003916D01*
X0104135Y0003905D01*
X0103853Y0003902D01*
X0103571Y0003905D01*
X0103290Y0003916D01*
X0103009Y0003933D01*
X0102728Y0003957D01*
X0102448Y0003988D01*
X0102169Y0004026D01*
X0101891Y0004071D01*
X0101614Y0004123D01*
X0101338Y0004181D01*
X0101064Y0004246D01*
X0100792Y0004318D01*
X0100521Y0004396D01*
X0100253Y0004481D01*
X0099986Y0004573D01*
X0099722Y0004671D01*
X0099461Y0004776D01*
X0099202Y0004887D01*
X0098946Y0005004D01*
X0098692Y0005128D01*
X0098442Y0005257D01*
X0098196Y0005393D01*
X0097952Y0005535D01*
X0097712Y0005683D01*
X0097476Y0005836D01*
X0097244Y0005996D01*
X0097016Y0006161D01*
X0096791Y0006331D01*
X0096571Y0006507D01*
X0096356Y0006689D01*
X0096145Y0006875D01*
X0095938Y0007067D01*
X0095737Y0007264D01*
X0095540Y0007465D01*
X0095348Y0007672D01*
X0095162Y0007883D01*
X0094980Y0008098D01*
X0094804Y0008318D01*
X0094634Y0008543D01*
X0094469Y0008771D01*
X0094309Y0009003D01*
X0094156Y0009239D01*
X0094008Y0009479D01*
X0093866Y0009723D01*
X0093730Y0009969D01*
X0093601Y0010219D01*
X0093477Y0010473D01*
X0093360Y0010729D01*
X0093249Y0010988D01*
X0093144Y0011249D01*
X0093046Y0011513D01*
X0092954Y0011780D01*
X0092869Y0012048D01*
X0092791Y0012319D01*
X0092719Y0012591D01*
X0092654Y0012865D01*
X0092596Y0013141D01*
X0092544Y0013418D01*
X0092499Y0013696D01*
X0092461Y0013975D01*
X0092430Y0014255D01*
X0092406Y0014536D01*
X0092389Y0014817D01*
X0092378Y0015098D01*
X0092375Y0015380D01*
D12*
X0079050Y0030734D02*
X0073538Y0030734D01*
X0079050Y0030734D02*
X0088499Y0040183D01*
X0088499Y0070891D01*
X0074719Y0070891D01*
X0074719Y0070498D02*
X0088105Y0070498D01*
X0088105Y0054750D01*
X0048735Y0054750D01*
X0048735Y0070498D01*
X0062121Y0070498D01*
X0062121Y0057899D01*
X0074719Y0057899D01*
X0074719Y0070498D01*
X0074719Y0070497D02*
X0088105Y0070497D01*
X0088105Y0069499D02*
X0074719Y0069499D01*
X0074719Y0068500D02*
X0088105Y0068500D01*
X0088105Y0067502D02*
X0074719Y0067502D01*
X0074719Y0066503D02*
X0088105Y0066503D01*
X0088105Y0065505D02*
X0074719Y0065505D01*
X0074719Y0064506D02*
X0088105Y0064506D01*
X0088105Y0063508D02*
X0074719Y0063508D01*
X0074719Y0062509D02*
X0088105Y0062509D01*
X0088105Y0061511D02*
X0074719Y0061511D01*
X0074719Y0060512D02*
X0088105Y0060512D01*
X0088105Y0059514D02*
X0074719Y0059514D01*
X0074719Y0058515D02*
X0088105Y0058515D01*
X0088105Y0057517D02*
X0048735Y0057517D01*
X0048735Y0058515D02*
X0062121Y0058515D01*
X0062121Y0059514D02*
X0048735Y0059514D01*
X0048735Y0060512D02*
X0062121Y0060512D01*
X0062121Y0061511D02*
X0048735Y0061511D01*
X0048735Y0062509D02*
X0062121Y0062509D01*
X0062121Y0063508D02*
X0048735Y0063508D01*
X0048735Y0064506D02*
X0062121Y0064506D01*
X0062121Y0065505D02*
X0048735Y0065505D01*
X0048735Y0066503D02*
X0062121Y0066503D01*
X0062121Y0067502D02*
X0048735Y0067502D01*
X0048735Y0068500D02*
X0062121Y0068500D01*
X0062121Y0069499D02*
X0048735Y0069499D01*
X0048735Y0070497D02*
X0062121Y0070497D01*
X0062121Y0070891D02*
X0048341Y0070891D01*
X0048341Y0040183D01*
X0057790Y0030734D01*
X0063302Y0030734D01*
X0048735Y0055520D02*
X0088105Y0055520D01*
X0088105Y0056518D02*
X0048735Y0056518D01*
D13*
X0060514Y0027819D02*
X0060514Y0024619D01*
X0058914Y0026219D02*
X0062114Y0026219D01*
D14*
X0066316Y0021649D02*
X0067052Y0021649D01*
X0067105Y0021647D01*
X0067157Y0021642D01*
X0067208Y0021632D01*
X0067259Y0021619D01*
X0067309Y0021603D01*
X0067358Y0021582D01*
X0067405Y0021559D01*
X0067450Y0021532D01*
X0067493Y0021502D01*
X0067534Y0021469D01*
X0067572Y0021433D01*
X0067608Y0021395D01*
X0067641Y0021354D01*
X0067671Y0021311D01*
X0067698Y0021266D01*
X0067721Y0021219D01*
X0067742Y0021170D01*
X0067758Y0021120D01*
X0067771Y0021069D01*
X0067781Y0021018D01*
X0067786Y0020966D01*
X0067788Y0020913D01*
X0067786Y0020860D01*
X0067781Y0020808D01*
X0067771Y0020757D01*
X0067758Y0020706D01*
X0067742Y0020656D01*
X0067721Y0020607D01*
X0067698Y0020560D01*
X0067671Y0020515D01*
X0067641Y0020472D01*
X0067608Y0020431D01*
X0067572Y0020393D01*
X0067534Y0020357D01*
X0067493Y0020324D01*
X0067450Y0020294D01*
X0067405Y0020267D01*
X0067358Y0020244D01*
X0067309Y0020223D01*
X0067259Y0020207D01*
X0067208Y0020194D01*
X0067157Y0020184D01*
X0067105Y0020179D01*
X0067052Y0020177D01*
X0066316Y0020177D01*
X0067199Y0020177D02*
X0067788Y0019000D01*
X0069123Y0019000D02*
X0070595Y0019000D01*
X0069859Y0019000D02*
X0069859Y0021649D01*
X0069123Y0021060D01*
X0066316Y0021649D02*
X0066316Y0019000D01*
X0062920Y0017880D02*
X0062920Y0012880D01*
X0073920Y0012880D01*
X0073920Y0017880D01*
X0062920Y0017880D01*
X0042436Y0031324D02*
X0040467Y0031324D01*
X0040467Y0070301D01*
X0042436Y0070301D01*
X0042436Y0031324D01*
X0040467Y0031324D02*
X0019601Y0031324D01*
X0019601Y0070301D01*
X0040467Y0070301D01*
X0041115Y0071641D02*
X0042587Y0071641D01*
X0041851Y0071641D02*
X0041851Y0074291D01*
X0041115Y0073702D01*
X0039675Y0074291D02*
X0039675Y0072230D01*
X0039673Y0072184D01*
X0039668Y0072138D01*
X0039659Y0072092D01*
X0039646Y0072048D01*
X0039630Y0072005D01*
X0039611Y0071963D01*
X0039588Y0071922D01*
X0039563Y0071884D01*
X0039534Y0071847D01*
X0039502Y0071814D01*
X0039469Y0071782D01*
X0039432Y0071753D01*
X0039394Y0071728D01*
X0039353Y0071705D01*
X0039311Y0071686D01*
X0039268Y0071670D01*
X0039223Y0071657D01*
X0039178Y0071648D01*
X0039132Y0071643D01*
X0039086Y0071641D01*
X0038792Y0071641D01*
X0084721Y0073010D02*
X0084721Y0074482D01*
X0084723Y0074528D01*
X0084728Y0074574D01*
X0084737Y0074619D01*
X0084750Y0074664D01*
X0084766Y0074707D01*
X0084785Y0074749D01*
X0084808Y0074790D01*
X0084833Y0074828D01*
X0084862Y0074865D01*
X0084894Y0074898D01*
X0084927Y0074930D01*
X0084964Y0074959D01*
X0085002Y0074984D01*
X0085043Y0075007D01*
X0085085Y0075026D01*
X0085128Y0075042D01*
X0085172Y0075055D01*
X0085218Y0075064D01*
X0085264Y0075069D01*
X0085310Y0075071D01*
X0085310Y0075070D02*
X0085899Y0075070D01*
X0087096Y0074482D02*
X0087832Y0075070D01*
X0087832Y0072421D01*
X0087096Y0072421D02*
X0088568Y0072421D01*
X0085899Y0072421D02*
X0085310Y0072421D01*
X0085264Y0072423D01*
X0085218Y0072428D01*
X0085173Y0072437D01*
X0085128Y0072450D01*
X0085085Y0072466D01*
X0085043Y0072485D01*
X0085002Y0072508D01*
X0084964Y0072533D01*
X0084927Y0072562D01*
X0084894Y0072594D01*
X0084862Y0072627D01*
X0084833Y0072664D01*
X0084808Y0072702D01*
X0084785Y0072743D01*
X0084766Y0072785D01*
X0084750Y0072828D01*
X0084737Y0072873D01*
X0084728Y0072918D01*
X0084723Y0072964D01*
X0084721Y0073010D01*
X0094363Y0071641D02*
X0094657Y0071641D01*
X0094703Y0071643D01*
X0094749Y0071648D01*
X0094794Y0071657D01*
X0094839Y0071670D01*
X0094882Y0071686D01*
X0094924Y0071705D01*
X0094965Y0071728D01*
X0095003Y0071753D01*
X0095040Y0071782D01*
X0095073Y0071814D01*
X0095105Y0071847D01*
X0095134Y0071884D01*
X0095159Y0071922D01*
X0095182Y0071963D01*
X0095201Y0072005D01*
X0095217Y0072048D01*
X0095230Y0072092D01*
X0095239Y0072138D01*
X0095244Y0072184D01*
X0095246Y0072230D01*
X0095246Y0074291D01*
X0097937Y0073114D02*
X0097974Y0073152D01*
X0098008Y0073192D01*
X0098038Y0073234D01*
X0098066Y0073279D01*
X0098090Y0073325D01*
X0098110Y0073373D01*
X0098127Y0073423D01*
X0098141Y0073473D01*
X0098150Y0073525D01*
X0098156Y0073577D01*
X0098158Y0073629D01*
X0097937Y0073113D02*
X0096686Y0071641D01*
X0098158Y0071641D01*
X0096686Y0073702D02*
X0096706Y0073755D01*
X0096728Y0073807D01*
X0096754Y0073857D01*
X0096783Y0073905D01*
X0096816Y0073951D01*
X0096851Y0073995D01*
X0096889Y0074036D01*
X0096930Y0074075D01*
X0096973Y0074111D01*
X0097019Y0074144D01*
X0097066Y0074174D01*
X0097116Y0074201D01*
X0097167Y0074225D01*
X0097219Y0074245D01*
X0097273Y0074261D01*
X0097328Y0074274D01*
X0097384Y0074284D01*
X0097440Y0074289D01*
X0097496Y0074291D01*
X0097545Y0074289D01*
X0097595Y0074284D01*
X0097643Y0074274D01*
X0097691Y0074262D01*
X0097738Y0074245D01*
X0097783Y0074225D01*
X0097827Y0074202D01*
X0097869Y0074176D01*
X0097909Y0074147D01*
X0097946Y0074114D01*
X0097981Y0074079D01*
X0098014Y0074042D01*
X0098043Y0074002D01*
X0098069Y0073960D01*
X0098092Y0073916D01*
X0098112Y0073871D01*
X0098129Y0073824D01*
X0098141Y0073776D01*
X0098151Y0073728D01*
X0098156Y0073678D01*
X0098158Y0073629D01*
X0094404Y0070301D02*
X0115270Y0070301D01*
X0115270Y0031324D01*
X0094404Y0031324D01*
X0094404Y0070301D01*
X0115270Y0070301D02*
X0117239Y0070301D01*
X0117239Y0031324D01*
X0115270Y0031324D01*
M02*
