G75*
%MOIN*%
%OFA0B0*%
%FSLAX25Y25*%
%IPPOS*%
%LPD*%
%AMOC8*
5,1,8,0,0,1.08239X$1,22.5*
%
%ADD10C,0.00600*%
%ADD11C,0.06693*%
%ADD12C,0.02781*%
%ADD13C,0.01200*%
%ADD14C,0.19685*%
D10*
X0019207Y0001600D02*
X0019207Y0100025D01*
X0117633Y0100025D01*
X0117633Y0001600D01*
X0019207Y0001600D01*
D11*
X0032987Y0040970D03*
X0032987Y0050813D03*
X0032987Y0060655D03*
X0107790Y0060655D03*
X0107790Y0050813D03*
X0107790Y0040970D03*
D12*
X0076294Y0015380D03*
X0060546Y0015380D03*
D13*
X0060546Y0046876D01*
X0056609Y0050813D01*
X0032987Y0050813D01*
X0037162Y0052613D02*
X0036841Y0053388D01*
X0035562Y0054667D01*
X0033891Y0055359D01*
X0032083Y0055359D01*
X0030412Y0054667D01*
X0029133Y0053388D01*
X0028440Y0051717D01*
X0028440Y0049908D01*
X0029133Y0048237D01*
X0030412Y0046958D01*
X0032083Y0046266D01*
X0033891Y0046266D01*
X0035562Y0046958D01*
X0036841Y0048237D01*
X0037162Y0049013D01*
X0055863Y0049013D01*
X0058746Y0046130D01*
X0058746Y0017243D01*
X0058350Y0016847D01*
X0057955Y0015895D01*
X0057955Y0014864D01*
X0058350Y0013912D01*
X0059078Y0013183D01*
X0060031Y0012789D01*
X0061061Y0012789D01*
X0062013Y0013183D01*
X0062742Y0013912D01*
X0063136Y0014864D01*
X0063136Y0015895D01*
X0062742Y0016847D01*
X0062346Y0017243D01*
X0062346Y0047621D01*
X0058409Y0051558D01*
X0057355Y0052613D01*
X0037162Y0052613D01*
X0036946Y0053136D02*
X0103831Y0053136D01*
X0103936Y0053388D02*
X0103615Y0052613D01*
X0079485Y0052613D01*
X0078431Y0051558D01*
X0074494Y0047621D01*
X0074494Y0017243D01*
X0074098Y0016847D01*
X0073703Y0015895D01*
X0073703Y0014864D01*
X0074098Y0013912D01*
X0074827Y0013183D01*
X0075779Y0012789D01*
X0076809Y0012789D01*
X0077761Y0013183D01*
X0078490Y0013912D01*
X0078884Y0014864D01*
X0078884Y0015895D01*
X0078490Y0016847D01*
X0078094Y0017243D01*
X0078094Y0046130D01*
X0080977Y0049013D01*
X0103615Y0049013D01*
X0103936Y0048237D01*
X0105215Y0046958D01*
X0106886Y0046266D01*
X0108694Y0046266D01*
X0110365Y0046958D01*
X0111644Y0048237D01*
X0112336Y0049908D01*
X0112336Y0051717D01*
X0111644Y0053388D01*
X0110365Y0054667D01*
X0108694Y0055359D01*
X0106886Y0055359D01*
X0105215Y0054667D01*
X0103936Y0053388D01*
X0104882Y0054334D02*
X0035895Y0054334D01*
X0034886Y0056071D02*
X0034145Y0055830D01*
X0033376Y0055709D01*
X0033273Y0055709D01*
X0033273Y0060369D01*
X0033273Y0060941D01*
X0037933Y0060941D01*
X0037933Y0061044D01*
X0037812Y0061813D01*
X0037571Y0062554D01*
X0037217Y0063248D01*
X0036760Y0063878D01*
X0036209Y0064428D01*
X0035579Y0064886D01*
X0034886Y0065239D01*
X0034145Y0065480D01*
X0033376Y0065602D01*
X0033273Y0065602D01*
X0033273Y0060941D01*
X0032701Y0060941D01*
X0032701Y0065602D01*
X0032598Y0065602D01*
X0031829Y0065480D01*
X0031088Y0065239D01*
X0030394Y0064886D01*
X0029764Y0064428D01*
X0029214Y0063878D01*
X0028756Y0063248D01*
X0028403Y0062554D01*
X0028162Y0061813D01*
X0028040Y0061044D01*
X0028040Y0060941D01*
X0032701Y0060941D01*
X0032701Y0060369D01*
X0033273Y0060369D01*
X0037933Y0060369D01*
X0037933Y0060266D01*
X0037812Y0059497D01*
X0037571Y0058756D01*
X0037217Y0058063D01*
X0036760Y0057433D01*
X0036209Y0056882D01*
X0035579Y0056425D01*
X0034886Y0056071D01*
X0036002Y0056732D02*
X0104775Y0056732D01*
X0104568Y0056882D02*
X0105198Y0056425D01*
X0105891Y0056071D01*
X0106632Y0055830D01*
X0107401Y0055709D01*
X0107504Y0055709D01*
X0107504Y0060369D01*
X0108076Y0060369D01*
X0108076Y0055709D01*
X0108179Y0055709D01*
X0108948Y0055830D01*
X0109689Y0056071D01*
X0110383Y0056425D01*
X0111012Y0056882D01*
X0111563Y0057433D01*
X0112021Y0058063D01*
X0112374Y0058756D01*
X0112615Y0059497D01*
X0112733Y0060241D01*
X0112733Y0022085D01*
X0112689Y0022160D01*
X0110633Y0024216D01*
X0108115Y0025670D01*
X0105307Y0026422D01*
X0102399Y0026422D01*
X0099591Y0025670D01*
X0097073Y0024216D01*
X0095017Y0022160D01*
X0093563Y0019642D01*
X0092810Y0016833D01*
X0092810Y0013926D01*
X0093563Y0011117D01*
X0095017Y0008599D01*
X0097073Y0006543D01*
X0097148Y0006500D01*
X0039692Y0006500D01*
X0039767Y0006543D01*
X0041823Y0008599D01*
X0043277Y0011117D01*
X0044029Y0013926D01*
X0044029Y0016833D01*
X0043277Y0019642D01*
X0041823Y0022160D01*
X0039767Y0024216D01*
X0037249Y0025670D01*
X0034441Y0026422D01*
X0031533Y0026422D01*
X0028725Y0025670D01*
X0026207Y0024216D01*
X0024151Y0022160D01*
X0024107Y0022085D01*
X0024107Y0079540D01*
X0024151Y0079465D01*
X0026207Y0077409D01*
X0028725Y0075956D01*
X0031533Y0075203D01*
X0034441Y0075203D01*
X0037249Y0075956D01*
X0039767Y0077409D01*
X0041823Y0079465D01*
X0043277Y0081983D01*
X0044029Y0084792D01*
X0044029Y0087699D01*
X0043277Y0090508D01*
X0041823Y0093026D01*
X0039767Y0095082D01*
X0039692Y0095125D01*
X0097148Y0095125D01*
X0097073Y0095082D01*
X0095017Y0093026D01*
X0093563Y0090508D01*
X0092810Y0087699D01*
X0092810Y0084792D01*
X0093563Y0081983D01*
X0095017Y0079465D01*
X0097073Y0077409D01*
X0099591Y0075956D01*
X0102399Y0075203D01*
X0105307Y0075203D01*
X0108115Y0075956D01*
X0110633Y0077409D01*
X0112689Y0079465D01*
X0112733Y0079540D01*
X0112733Y0061069D01*
X0112615Y0061813D01*
X0112374Y0062554D01*
X0112021Y0063248D01*
X0111563Y0063878D01*
X0111012Y0064428D01*
X0110383Y0064886D01*
X0109689Y0065239D01*
X0108948Y0065480D01*
X0108179Y0065602D01*
X0108076Y0065602D01*
X0108076Y0060941D01*
X0107504Y0060941D01*
X0107504Y0060369D01*
X0102844Y0060369D01*
X0102844Y0060266D01*
X0102965Y0059497D01*
X0103206Y0058756D01*
X0103559Y0058063D01*
X0104017Y0057433D01*
X0104568Y0056882D01*
X0103656Y0057930D02*
X0037121Y0057930D01*
X0037692Y0059129D02*
X0103085Y0059129D01*
X0102844Y0060327D02*
X0037933Y0060327D01*
X0037857Y0061526D02*
X0102920Y0061526D01*
X0102965Y0061813D02*
X0102844Y0061044D01*
X0102844Y0060941D01*
X0107504Y0060941D01*
X0107504Y0065602D01*
X0107401Y0065602D01*
X0106632Y0065480D01*
X0105891Y0065239D01*
X0105198Y0064886D01*
X0104568Y0064428D01*
X0104017Y0063878D01*
X0103559Y0063248D01*
X0103206Y0062554D01*
X0102965Y0061813D01*
X0103293Y0062724D02*
X0037484Y0062724D01*
X0036715Y0063923D02*
X0104062Y0063923D01*
X0105660Y0065121D02*
X0035117Y0065121D01*
X0033273Y0065121D02*
X0032701Y0065121D01*
X0032701Y0063923D02*
X0033273Y0063923D01*
X0033273Y0062724D02*
X0032701Y0062724D01*
X0032701Y0061526D02*
X0033273Y0061526D01*
X0033273Y0060327D02*
X0032701Y0060327D01*
X0032701Y0060369D02*
X0032701Y0055709D01*
X0032598Y0055709D01*
X0031829Y0055830D01*
X0031088Y0056071D01*
X0030394Y0056425D01*
X0029764Y0056882D01*
X0029214Y0057433D01*
X0028756Y0058063D01*
X0028403Y0058756D01*
X0028162Y0059497D01*
X0028040Y0060266D01*
X0028040Y0060369D01*
X0032701Y0060369D01*
X0032701Y0059129D02*
X0033273Y0059129D01*
X0033273Y0057930D02*
X0032701Y0057930D01*
X0032701Y0056732D02*
X0033273Y0056732D01*
X0030079Y0054334D02*
X0024107Y0054334D01*
X0024107Y0053136D02*
X0029028Y0053136D01*
X0028532Y0051937D02*
X0024107Y0051937D01*
X0024107Y0050739D02*
X0028440Y0050739D01*
X0028593Y0049540D02*
X0024107Y0049540D01*
X0024107Y0048342D02*
X0029089Y0048342D01*
X0030226Y0047143D02*
X0024107Y0047143D01*
X0024107Y0045945D02*
X0058746Y0045945D01*
X0058746Y0044746D02*
X0035640Y0044746D01*
X0035562Y0044824D02*
X0033891Y0045517D01*
X0032083Y0045517D01*
X0030412Y0044824D01*
X0029133Y0043545D01*
X0028440Y0041874D01*
X0028440Y0040066D01*
X0029133Y0038395D01*
X0030412Y0037116D01*
X0032083Y0036424D01*
X0033891Y0036424D01*
X0035562Y0037116D01*
X0036841Y0038395D01*
X0037533Y0040066D01*
X0037533Y0041874D01*
X0036841Y0043545D01*
X0035562Y0044824D01*
X0036839Y0043548D02*
X0058746Y0043548D01*
X0058746Y0042349D02*
X0037337Y0042349D01*
X0037533Y0041151D02*
X0058746Y0041151D01*
X0058746Y0039952D02*
X0037486Y0039952D01*
X0036990Y0038754D02*
X0058746Y0038754D01*
X0058746Y0037555D02*
X0036002Y0037555D01*
X0029972Y0037555D02*
X0024107Y0037555D01*
X0024107Y0036357D02*
X0058746Y0036357D01*
X0058746Y0035158D02*
X0024107Y0035158D01*
X0024107Y0033960D02*
X0058746Y0033960D01*
X0058746Y0032761D02*
X0024107Y0032761D01*
X0024107Y0031563D02*
X0058746Y0031563D01*
X0058746Y0030364D02*
X0024107Y0030364D01*
X0024107Y0029166D02*
X0058746Y0029166D01*
X0058746Y0027967D02*
X0024107Y0027967D01*
X0024107Y0026769D02*
X0058746Y0026769D01*
X0058746Y0025570D02*
X0037421Y0025570D01*
X0039497Y0024372D02*
X0058746Y0024372D01*
X0058746Y0023173D02*
X0040810Y0023173D01*
X0041930Y0021975D02*
X0058746Y0021975D01*
X0058746Y0020776D02*
X0042622Y0020776D01*
X0043294Y0019578D02*
X0058746Y0019578D01*
X0058746Y0018379D02*
X0043615Y0018379D01*
X0043936Y0017181D02*
X0058683Y0017181D01*
X0057992Y0015982D02*
X0044029Y0015982D01*
X0044029Y0014784D02*
X0057989Y0014784D01*
X0058677Y0013585D02*
X0043938Y0013585D01*
X0043617Y0012387D02*
X0093223Y0012387D01*
X0092902Y0013585D02*
X0078163Y0013585D01*
X0078851Y0014784D02*
X0092810Y0014784D01*
X0092810Y0015982D02*
X0078848Y0015982D01*
X0078156Y0017181D02*
X0092904Y0017181D01*
X0093225Y0018379D02*
X0078094Y0018379D01*
X0078094Y0019578D02*
X0093546Y0019578D01*
X0094218Y0020776D02*
X0078094Y0020776D01*
X0078094Y0021975D02*
X0094910Y0021975D01*
X0096030Y0023173D02*
X0078094Y0023173D01*
X0078094Y0024372D02*
X0097343Y0024372D01*
X0099419Y0025570D02*
X0078094Y0025570D01*
X0078094Y0026769D02*
X0112733Y0026769D01*
X0112733Y0027967D02*
X0078094Y0027967D01*
X0078094Y0029166D02*
X0112733Y0029166D01*
X0112733Y0030364D02*
X0078094Y0030364D01*
X0078094Y0031563D02*
X0112733Y0031563D01*
X0112733Y0032761D02*
X0078094Y0032761D01*
X0078094Y0033960D02*
X0112733Y0033960D01*
X0112733Y0035158D02*
X0078094Y0035158D01*
X0078094Y0036357D02*
X0112733Y0036357D01*
X0112733Y0037555D02*
X0110805Y0037555D01*
X0110365Y0037116D02*
X0111644Y0038395D01*
X0112336Y0040066D01*
X0112336Y0041874D01*
X0111644Y0043545D01*
X0110365Y0044824D01*
X0108694Y0045517D01*
X0106886Y0045517D01*
X0105215Y0044824D01*
X0103936Y0043545D01*
X0103244Y0041874D01*
X0103244Y0040066D01*
X0103936Y0038395D01*
X0105215Y0037116D01*
X0106886Y0036424D01*
X0108694Y0036424D01*
X0110365Y0037116D01*
X0111793Y0038754D02*
X0112733Y0038754D01*
X0112733Y0039952D02*
X0112290Y0039952D01*
X0112336Y0041151D02*
X0112733Y0041151D01*
X0112733Y0042349D02*
X0112140Y0042349D01*
X0111642Y0043548D02*
X0112733Y0043548D01*
X0112733Y0044746D02*
X0110443Y0044746D01*
X0110551Y0047143D02*
X0112733Y0047143D01*
X0112733Y0045945D02*
X0078094Y0045945D01*
X0078094Y0044746D02*
X0105137Y0044746D01*
X0103938Y0043548D02*
X0078094Y0043548D01*
X0078094Y0042349D02*
X0103440Y0042349D01*
X0103244Y0041151D02*
X0078094Y0041151D01*
X0078094Y0039952D02*
X0103291Y0039952D01*
X0103787Y0038754D02*
X0078094Y0038754D01*
X0078094Y0037555D02*
X0104775Y0037555D01*
X0105030Y0047143D02*
X0079107Y0047143D01*
X0080306Y0048342D02*
X0103892Y0048342D01*
X0107790Y0050813D02*
X0080231Y0050813D01*
X0076294Y0046876D01*
X0076294Y0015380D01*
X0074431Y0017181D02*
X0062408Y0017181D01*
X0063100Y0015982D02*
X0073740Y0015982D01*
X0073737Y0014784D02*
X0063103Y0014784D01*
X0062415Y0013585D02*
X0074425Y0013585D01*
X0074494Y0018379D02*
X0062346Y0018379D01*
X0062346Y0019578D02*
X0074494Y0019578D01*
X0074494Y0020776D02*
X0062346Y0020776D01*
X0062346Y0021975D02*
X0074494Y0021975D01*
X0074494Y0023173D02*
X0062346Y0023173D01*
X0062346Y0024372D02*
X0074494Y0024372D01*
X0074494Y0025570D02*
X0062346Y0025570D01*
X0062346Y0026769D02*
X0074494Y0026769D01*
X0074494Y0027967D02*
X0062346Y0027967D01*
X0062346Y0029166D02*
X0074494Y0029166D01*
X0074494Y0030364D02*
X0062346Y0030364D01*
X0062346Y0031563D02*
X0074494Y0031563D01*
X0074494Y0032761D02*
X0062346Y0032761D01*
X0062346Y0033960D02*
X0074494Y0033960D01*
X0074494Y0035158D02*
X0062346Y0035158D01*
X0062346Y0036357D02*
X0074494Y0036357D01*
X0074494Y0037555D02*
X0062346Y0037555D01*
X0062346Y0038754D02*
X0074494Y0038754D01*
X0074494Y0039952D02*
X0062346Y0039952D01*
X0062346Y0041151D02*
X0074494Y0041151D01*
X0074494Y0042349D02*
X0062346Y0042349D01*
X0062346Y0043548D02*
X0074494Y0043548D01*
X0074494Y0044746D02*
X0062346Y0044746D01*
X0062346Y0045945D02*
X0074494Y0045945D01*
X0074494Y0047143D02*
X0062346Y0047143D01*
X0061625Y0048342D02*
X0075215Y0048342D01*
X0076413Y0049540D02*
X0060427Y0049540D01*
X0059228Y0050739D02*
X0077612Y0050739D01*
X0078810Y0051937D02*
X0058030Y0051937D01*
X0056534Y0048342D02*
X0036885Y0048342D01*
X0035747Y0047143D02*
X0057732Y0047143D01*
X0030334Y0044746D02*
X0024107Y0044746D01*
X0024107Y0043548D02*
X0029135Y0043548D01*
X0028637Y0042349D02*
X0024107Y0042349D01*
X0024107Y0041151D02*
X0028440Y0041151D01*
X0028487Y0039952D02*
X0024107Y0039952D01*
X0024107Y0038754D02*
X0028984Y0038754D01*
X0028553Y0025570D02*
X0024107Y0025570D01*
X0024107Y0024372D02*
X0026477Y0024372D01*
X0025164Y0023173D02*
X0024107Y0023173D01*
X0041934Y0008791D02*
X0094906Y0008791D01*
X0094214Y0009990D02*
X0042626Y0009990D01*
X0043296Y0011188D02*
X0093544Y0011188D01*
X0096023Y0007593D02*
X0040816Y0007593D01*
X0024107Y0055533D02*
X0112733Y0055533D01*
X0112733Y0054334D02*
X0110698Y0054334D01*
X0111749Y0053136D02*
X0112733Y0053136D01*
X0112733Y0051937D02*
X0112245Y0051937D01*
X0112336Y0050739D02*
X0112733Y0050739D01*
X0112733Y0049540D02*
X0112184Y0049540D01*
X0111688Y0048342D02*
X0112733Y0048342D01*
X0112733Y0056732D02*
X0110805Y0056732D01*
X0111924Y0057930D02*
X0112733Y0057930D01*
X0112733Y0059129D02*
X0112495Y0059129D01*
X0112660Y0061526D02*
X0112733Y0061526D01*
X0112733Y0062724D02*
X0112287Y0062724D01*
X0112733Y0063923D02*
X0111518Y0063923D01*
X0112733Y0065121D02*
X0109921Y0065121D01*
X0108076Y0065121D02*
X0107504Y0065121D01*
X0107504Y0063923D02*
X0108076Y0063923D01*
X0108076Y0062724D02*
X0107504Y0062724D01*
X0107504Y0061526D02*
X0108076Y0061526D01*
X0108076Y0060327D02*
X0107504Y0060327D01*
X0107504Y0059129D02*
X0108076Y0059129D01*
X0108076Y0057930D02*
X0107504Y0057930D01*
X0107504Y0056732D02*
X0108076Y0056732D01*
X0112733Y0066320D02*
X0024107Y0066320D01*
X0024107Y0067518D02*
X0112733Y0067518D01*
X0112733Y0068717D02*
X0024107Y0068717D01*
X0024107Y0069915D02*
X0112733Y0069915D01*
X0112733Y0071114D02*
X0024107Y0071114D01*
X0024107Y0072312D02*
X0112733Y0072312D01*
X0112733Y0073511D02*
X0024107Y0073511D01*
X0024107Y0074709D02*
X0112733Y0074709D01*
X0112733Y0075908D02*
X0107936Y0075908D01*
X0110108Y0077106D02*
X0112733Y0077106D01*
X0112733Y0078305D02*
X0111529Y0078305D01*
X0112711Y0079503D02*
X0112733Y0079503D01*
X0099770Y0075908D02*
X0037070Y0075908D01*
X0039242Y0077106D02*
X0097598Y0077106D01*
X0096177Y0078305D02*
X0040662Y0078305D01*
X0041845Y0079503D02*
X0094995Y0079503D01*
X0094303Y0080702D02*
X0042537Y0080702D01*
X0043229Y0081900D02*
X0093611Y0081900D01*
X0093264Y0083099D02*
X0043576Y0083099D01*
X0043897Y0084297D02*
X0092943Y0084297D01*
X0092810Y0085496D02*
X0044029Y0085496D01*
X0044029Y0086694D02*
X0092810Y0086694D01*
X0092862Y0087893D02*
X0043978Y0087893D01*
X0043656Y0089091D02*
X0093183Y0089091D01*
X0093505Y0090290D02*
X0043335Y0090290D01*
X0042711Y0091488D02*
X0094129Y0091488D01*
X0094821Y0092687D02*
X0042019Y0092687D01*
X0040964Y0093885D02*
X0095876Y0093885D01*
X0097076Y0095084D02*
X0039764Y0095084D01*
X0024129Y0079503D02*
X0024107Y0079503D01*
X0024107Y0078305D02*
X0025311Y0078305D01*
X0024107Y0077106D02*
X0026732Y0077106D01*
X0028904Y0075908D02*
X0024107Y0075908D01*
X0024107Y0065121D02*
X0030856Y0065121D01*
X0029259Y0063923D02*
X0024107Y0063923D01*
X0024107Y0062724D02*
X0028490Y0062724D01*
X0028117Y0061526D02*
X0024107Y0061526D01*
X0024107Y0060327D02*
X0028040Y0060327D01*
X0028282Y0059129D02*
X0024107Y0059129D01*
X0024107Y0057930D02*
X0028853Y0057930D01*
X0029972Y0056732D02*
X0024107Y0056732D01*
X0108287Y0025570D02*
X0112733Y0025570D01*
X0112733Y0024372D02*
X0110363Y0024372D01*
X0111676Y0023173D02*
X0112733Y0023173D01*
D14*
X0103853Y0015380D03*
X0032987Y0015380D03*
X0032987Y0086246D03*
X0103853Y0086246D03*
M02*
